<svg xmlns="http://www.w3.org/2000/svg" version="1.1" xmlns:xlink="http://www.w3.org/1999/xlink" width="512" height="512" x="0" y="0" viewBox="0 0 100 100" style="enable-background:new 0 0 512 512" xml:space="preserve" class=""><g><linearGradient id="a"><stop stop-opacity="1" stop-color="#ff6bbc" offset="0"></stop><stop stop-opacity="1" stop-color="#f7cfe5" offset="1"></stop></linearGradient><linearGradient xlink:href="#a" id="b" x1="1.467" x2="93.484" y1="-6.236" y2="94.604" gradientUnits="userSpaceOnUse"></linearGradient><linearGradient xlink:href="#a" id="c" x1="-.185" x2="91.832" y1="-4.729" y2="96.112" gradientUnits="userSpaceOnUse"></linearGradient><path fill="url(#b)" d="M43.804 2.5c-20.8 0-37.7 16.8-37.7 37.7 0 20.8 16.9 37.7 37.7 37.7s37.7-16.8 37.7-37.7-16.8-37.7-37.7-37.7zm0 64c-14.4 0-26.2-11.8-26.2-26.2s11.7-26.3 26.2-26.3c14.6 0 26.2 11.7 26.2 26.2 0 14.4-11.8 26.3-26.2 26.3z" opacity="1" data-original="url(#b)" class=""></path><path fill="url(#c)" d="M87.104 97.5c-1.7 0-3.6-.7-4.9-2.1l-22.6-24.5c-2.6-2.7-2.4-6.9.4-9.5 2.7-2.5 6.9-2.4 9.5.4l22.6 24.5c2.5 2.7 2.4 6.9-.4 9.5-1.3 1-2.9 1.7-4.6 1.7z" opacity="1" data-original="url(#c)" class=""></path></g></svg>